<svg width="69" height="50" viewBox="0 0 69 50" fill="none" xmlns="http://www.w3.org/2000/svg">
<path id="Vector" d="M61.3844 24.2098C64.7584 24.2098 67.0234 25.735 68.4094 27.63V0.638119C68.4094 0.129719 67.8084 -0.193781 67.3924 0.129719L34.0684 24.4871H34.9474C38.4134 24.4871 40.1694 26.7056 40.1694 29.109C40.1694 31.004 39.1994 32.3906 37.8584 32.9914C37.6274 33.0839 37.6274 33.4074 37.8584 33.4998C39.3844 34.1469 40.4934 35.7646 40.4934 37.7058C40.4934 40.4789 38.6904 42.6512 35.2244 42.6512H25.7494C25.5645 42.6512 25.3797 42.5125 25.3797 42.2814V30.8191L0.560068 48.9832C0.144068 49.3529 0.328969 50 0.883569 50H67.8084C68.1324 50 68.3634 49.7689 68.3634 49.4454V40.2478C66.5604 41.9117 64.2034 42.9747 61.3384 42.9747C55.9764 42.9747 51.6324 39.2772 51.6324 33.5923C51.6784 27.8611 56.0694 24.2098 61.3844 24.2098ZM48.1194 42.3276C48.1194 42.5125 47.9804 42.6512 47.7954 42.6512H44.6064C44.4214 42.6512 44.2834 42.5125 44.2834 42.3276V24.8107C44.2834 24.6258 44.4214 24.4871 44.6064 24.4871H47.7954C47.9804 24.4871 48.1194 24.6258 48.1194 24.8107V42.3276Z" fill="black"/>
</svg>
