<svg width="17" height="20" viewBox="0 0 17 20" fill="none" xmlns="http://www.w3.org/2000/svg">
<path id="Vector" d="M0.275757 9.59236C0.275757 3.99986 4.29676 0.209961 9.47276 0.209961C12.8468 0.209961 15.0198 1.92006 16.3138 3.99986C16.4058 4.13856 16.3598 4.36966 16.1748 4.41586L14.0948 5.52516C13.9568 5.61756 13.7718 5.57136 13.7248 5.43266C12.8468 4.04616 11.2298 3.02926 9.47276 3.02926C6.00676 3.02926 3.41876 5.75626 3.41876 9.59236C3.41876 13.3824 6.00676 16.1555 9.47276 16.1555C11.2298 16.1555 12.8468 15.1387 13.7248 13.7521C13.8178 13.6135 13.9568 13.5673 14.0948 13.6597L16.1748 14.7227C16.3598 14.8152 16.4058 15 16.3138 15.1849C14.9728 17.2648 12.8008 19.0211 9.47276 19.0211C4.29676 18.9749 0.275757 15.1387 0.275757 9.59236Z" fill="black"/>
</svg>
