<svg width="20" height="19" viewBox="0 0 20 19" fill="none" xmlns="http://www.w3.org/2000/svg">
<path id="Vector" d="M15.8589 18.4201V4.60062L10.3589 18.5125C10.3589 18.5587 10.2669 18.6049 10.2209 18.6049H9.0649C9.0189 18.6049 8.9259 18.5587 8.9259 18.5125L3.3799 4.60062V18.4201C3.3799 18.5587 3.2879 18.6511 3.1489 18.6511H0.3759C0.2369 18.6511 0.144897 18.5587 0.144897 18.4201V0.67202C0.144897 0.53332 0.2369 0.440918 0.3759 0.440918H4.35091C4.53591 0.440918 4.67391 0.53332 4.76691 0.71822L9.6199 13.1973L14.4269 0.71822C14.4729 0.53332 14.6579 0.440918 14.8429 0.440918H18.8169C18.9559 0.440918 19.0479 0.53332 19.0479 0.67202V18.4201C19.0479 18.5587 18.9559 18.6511 18.8169 18.6511H16.0439C15.9979 18.6511 15.8589 18.5587 15.8589 18.4201Z" fill="black"/>
</svg>
