<svg width="13" height="19" viewBox="0 0 13 19" fill="none" xmlns="http://www.w3.org/2000/svg">
<path id="Vector" d="M0.288391 18.3277V0.810661C0.288391 0.625761 0.427396 0.487061 0.612396 0.487061H12.3984C12.5834 0.487061 12.7214 0.625761 12.7214 0.810661V2.93666C12.7214 3.12156 12.5834 3.26026 12.3984 3.26026H3.80139C3.61639 3.26026 3.47739 3.39886 3.47739 3.58376V7.60486C3.47739 7.78966 3.61639 7.92836 3.80139 7.92836H12.2134C12.3984 7.92836 12.5364 8.06696 12.5364 8.25186V10.378C12.5364 10.5629 12.3984 10.7015 12.2134 10.7015H3.80139C3.61639 10.7015 3.47739 10.8402 3.47739 11.0251V15.4159C3.47739 15.6007 3.61639 15.7394 3.80139 15.7394H12.3984C12.5834 15.7394 12.7214 15.8781 12.7214 16.0629V18.189C12.7214 18.3739 12.5834 18.5125 12.3984 18.5125H0.612396C0.427396 18.6512 0.288391 18.5125 0.288391 18.3277Z" fill="black"/>
</svg>
