<svg width="15" height="19" viewBox="0 0 15 19" fill="none" xmlns="http://www.w3.org/2000/svg">
<path id="Vector" d="M10.5113 18.4663L6.67534 11.9957C6.62934 11.9032 6.49035 11.857 6.39835 11.857H3.71735C3.53235 11.857 3.39435 11.9957 3.39435 12.1805V18.3277C3.39435 18.5125 3.25534 18.6512 3.07034 18.6512H0.574341C0.389341 18.6512 0.251343 18.5125 0.251343 18.3277V0.810661C0.251343 0.625761 0.389341 0.487061 0.574341 0.487061H8.24734C11.8523 0.487061 14.2094 2.79806 14.2094 6.17206C14.2094 9.17626 12.3603 10.8864 10.3263 11.3948C10.0953 11.441 10.0033 11.6721 10.0953 11.9032C10.8353 13.1049 13.1464 16.8024 14.0244 18.1428C14.1634 18.3739 14.0243 18.6512 13.7473 18.6512H10.8353C10.6963 18.6512 10.6043 18.605 10.5113 18.4663ZM10.9273 6.12586C10.9273 4.36946 9.63334 3.26026 7.83134 3.26026H3.76334C3.57834 3.26026 3.44034 3.39886 3.44034 3.58376V8.71406C3.44034 8.89896 3.57834 9.03756 3.76334 9.03756H7.83134C9.63334 9.03756 10.9273 7.92836 10.9273 6.12586Z" fill="black"/>
</svg>
