<svg width="14" height="19" viewBox="0 0 14 19" fill="none" xmlns="http://www.w3.org/2000/svg">
<path id="Vector" d="M0.747375 18.3277V0.810661C0.747375 0.625761 0.885374 0.487061 1.07037 0.487061H12.9024C13.0874 0.487061 13.2264 0.625761 13.2264 0.810661V2.98296C13.2264 3.16776 13.0874 3.30646 12.9024 3.30646H4.25937C4.07537 3.30646 3.93637 3.44506 3.93637 3.62996V7.69726C3.93637 7.88216 4.07537 8.02076 4.25937 8.02076H12.6714C12.8564 8.02076 12.9954 8.15946 12.9954 8.34436V10.5167C12.9954 10.7015 12.8564 10.8402 12.6714 10.8402H4.25937C4.07537 10.8402 3.93637 10.9788 3.93637 11.1637V15.6007C3.93637 15.7856 4.07537 15.9243 4.25937 15.9243H12.9024C13.0874 15.9243 13.2264 16.0629 13.2264 16.2478V18.4201C13.2264 18.605 13.0874 18.7436 12.9024 18.7436H1.07037C0.885374 18.6512 0.747375 18.5125 0.747375 18.3277Z" fill="black"/>
</svg>
