<svg width="17" height="19" viewBox="0 0 17 19" fill="none" xmlns="http://www.w3.org/2000/svg">
<path id="Vector" d="M0.520874 9.49983C0.520874 3.90733 4.54186 0.117432 9.71786 0.117432C13.0919 0.117432 15.2649 1.82753 16.5589 3.90733C16.6509 4.04603 16.6049 4.27713 16.4199 4.32333L14.3399 5.43253C14.2019 5.52503 14.0168 5.47883 13.9698 5.34013C13.0918 3.95353 11.4749 2.93673 9.71786 2.93673C6.25186 2.93673 3.66385 5.66363 3.66385 9.49983C3.66385 13.2898 6.25186 16.0629 9.71786 16.0629C11.4749 16.0629 13.0918 15.0461 13.9698 13.6595C14.0628 13.5209 14.2019 13.4746 14.3399 13.5671L16.4199 14.6301C16.6049 14.7226 16.6509 14.9074 16.5589 15.0923C15.2179 17.1722 13.0459 18.9285 9.71786 18.9285C4.54186 18.8823 0.520874 15.0923 0.520874 9.49983Z" fill="black"/>
</svg>
