<svg width="20" height="19" viewBox="0 0 20 19" fill="none" xmlns="http://www.w3.org/2000/svg">
<path id="Vector" d="M16.4314 18.4201V4.60062L10.9314 18.5125C10.9314 18.5587 10.8394 18.6049 10.7924 18.6049H9.63741C9.59141 18.6049 9.4984 18.5587 9.4984 18.5125L3.95241 4.60062V18.4201C3.95241 18.5587 3.8604 18.6511 3.72141 18.6511H0.94841C0.80941 18.6511 0.717407 18.5587 0.717407 18.4201V0.67202C0.717407 0.53332 0.80941 0.440918 0.94841 0.440918H4.9234C5.1074 0.440918 5.2464 0.53332 5.3394 0.71822L10.1924 13.1973L14.9984 0.71822C15.0454 0.53332 15.2294 0.440918 15.4144 0.440918H19.3894C19.5284 0.440918 19.6204 0.53332 19.6204 0.67202V18.4201C19.6204 18.5587 19.5284 18.6511 19.3894 18.6511H16.6164C16.5244 18.6511 16.4314 18.5587 16.4314 18.4201Z" fill="black"/>
</svg>
